<svg width="24" height="24" viewBox="0 0 24 24" fill="none" xmlns="http://www.w3.org/2000/svg">
<path fill-rule="evenodd" clip-rule="evenodd" d="M6.96888 2.46906C7.03854 2.39921 7.12131 2.3438 7.21243 2.30599C7.30354 2.26818 7.40122 2.24872 7.49988 2.24872C7.59853 2.24872 7.69621 2.26818 7.78733 2.30599C7.87844 2.3438 7.96121 2.39921 8.03088 2.46906L17.0309 11.4691C17.1007 11.5387 17.1561 11.6215 17.1939 11.7126C17.2318 11.8037 17.2512 11.9014 17.2512 12.0001C17.2512 12.0987 17.2318 12.1964 17.1939 12.2875C17.1561 12.3786 17.1007 12.4614 17.0309 12.5311L8.03088 21.5311C7.89005 21.6719 7.69904 21.751 7.49988 21.751C7.30071 21.751 7.10971 21.6719 6.96888 21.5311C6.82805 21.3902 6.74893 21.1992 6.74893 21.0001C6.74893 20.8009 6.82805 20.6099 6.96888 20.4691L15.4394 12.0001L6.96888 3.53106C6.89903 3.46139 6.84362 3.37863 6.80581 3.28751C6.768 3.19639 6.74854 3.09871 6.74854 3.00006C6.74854 2.90141 6.768 2.80373 6.80581 2.71261C6.84362 2.62149 6.89903 2.53873 6.96888 2.46906Z" fill="#ACB2BB"/>
</svg>
