<svg width="8" height="8" viewBox="0 0 8 8" fill="none" xmlns="http://www.w3.org/2000/svg">
<path d="M3.62326 2.43001L1.22526 5.17051C0.942261 5.49401 1.17226 6.00001 1.60176 6.00001H6.39776C6.49388 6.00009 6.58799 5.97247 6.66882 5.92044C6.74964 5.86841 6.81376 5.79419 6.85349 5.70666C6.89321 5.61914 6.90687 5.52201 6.89282 5.42692C6.87877 5.33183 6.83761 5.24281 6.77426 5.17051L4.37626 2.43051C4.32933 2.37681 4.27145 2.33376 4.20652 2.30427C4.14158 2.27478 4.07108 2.25952 3.99976 2.25952C3.92844 2.25952 3.85794 2.27478 3.79301 2.30427C3.72807 2.33376 3.67019 2.37681 3.62326 2.43051V2.43001Z" fill="#7E858F"/>
</svg>
