<svg width="24" height="24" viewBox="0 0 24 24" fill="none" xmlns="http://www.w3.org/2000/svg">
<path fill-rule="evenodd" clip-rule="evenodd" d="M17.781 6.219C17.8508 6.28867 17.9062 6.37143 17.944 6.46255C17.9818 6.55367 18.0013 6.65135 18.0013 6.75C18.0013 6.84865 17.9818 6.94633 17.944 7.03745C17.9062 7.12857 17.8508 7.21133 17.781 7.281L7.28097 17.781C7.14014 17.9218 6.94913 18.0009 6.74997 18.0009C6.55081 18.0009 6.3598 17.9218 6.21897 17.781C6.07814 17.6402 5.99902 17.4492 5.99902 17.25C5.99902 17.0508 6.07814 16.8598 6.21897 16.719L16.719 6.219C16.7886 6.14915 16.8714 6.09374 16.9625 6.05593C17.0536 6.01812 17.1513 5.99866 17.25 5.99866C17.3486 5.99866 17.4463 6.01812 17.5374 6.05593C17.6285 6.09374 17.7113 6.14915 17.781 6.219Z" fill="#ACB2BB"/>
<path fill-rule="evenodd" clip-rule="evenodd" d="M6.21936 6.219C6.14952 6.28867 6.0941 6.37143 6.0563 6.46255C6.01849 6.55367 5.99902 6.65135 5.99902 6.75C5.99902 6.84865 6.01849 6.94633 6.0563 7.03745C6.0941 7.12857 6.14952 7.21133 6.21936 7.281L16.7194 17.781C16.8602 17.9218 17.0512 18.0009 17.2504 18.0009C17.4495 18.0009 17.6405 17.9218 17.7814 17.781C17.9222 17.6402 18.0013 17.4492 18.0013 17.25C18.0013 17.0508 17.9222 16.8598 17.7814 16.719L7.28136 6.219C7.2117 6.14915 7.12893 6.09374 7.03781 6.05593C6.9467 6.01812 6.84902 5.99866 6.75036 5.99866C6.65171 5.99866 6.55403 6.01812 6.46291 6.05593C6.3718 6.09374 6.28903 6.14915 6.21936 6.219Z" fill="#ACB2BB"/>
</svg>
