<svg width="16" height="16" viewBox="0 0 16 16" fill="none" xmlns="http://www.w3.org/2000/svg">
<path fill-rule="evenodd" clip-rule="evenodd" d="M14.5 13.5H1.5C1.36739 13.5 1.24021 13.4473 1.14645 13.3536C1.05268 13.2598 1 13.1326 1 13V6C1 5.86739 1.05268 5.74021 1.14645 5.64645C1.24021 5.55268 1.36739 5.5 1.5 5.5H14.5C14.6326 5.5 14.7598 5.55268 14.8536 5.64645C14.9473 5.74021 15 5.86739 15 6V13C15 13.1326 14.9473 13.2598 14.8536 13.3536C14.7598 13.4473 14.6326 13.5 14.5 13.5ZM1.5 14.5C1.10218 14.5 0.720644 14.342 0.43934 14.0607C0.158035 13.7794 0 13.3978 0 13L0 6C0 5.60218 0.158035 5.22064 0.43934 4.93934C0.720644 4.65804 1.10218 4.5 1.5 4.5H14.5C14.8978 4.5 15.2794 4.65804 15.5607 4.93934C15.842 5.22064 16 5.60218 16 6V13C16 13.3978 15.842 13.7794 15.5607 14.0607C15.2794 14.342 14.8978 14.5 14.5 14.5H1.5ZM2 3C2 3.13261 2.05268 3.25979 2.14645 3.35355C2.24021 3.44732 2.36739 3.5 2.5 3.5H13.5C13.6326 3.5 13.7598 3.44732 13.8536 3.35355C13.9473 3.25979 14 3.13261 14 3C14 2.86739 13.9473 2.74021 13.8536 2.64645C13.7598 2.55268 13.6326 2.5 13.5 2.5H2.5C2.36739 2.5 2.24021 2.55268 2.14645 2.64645C2.05268 2.74021 2 2.86739 2 3V3ZM4 1C4 1.13261 4.05268 1.25979 4.14645 1.35355C4.24021 1.44732 4.36739 1.5 4.5 1.5H11.5C11.6326 1.5 11.7598 1.44732 11.8536 1.35355C11.9473 1.25979 12 1.13261 12 1C12 0.867392 11.9473 0.740215 11.8536 0.646447C11.7598 0.552678 11.6326 0.5 11.5 0.5H4.5C4.36739 0.5 4.24021 0.552678 4.14645 0.646447C4.05268 0.740215 4 0.867392 4 1V1Z" fill="#F7931A"/>
</svg>
