<svg width="16" height="16" viewBox="0 0 16 16" fill="none" xmlns="http://www.w3.org/2000/svg">
<path fill-rule="evenodd" clip-rule="evenodd" d="M11.0519 1.61509L10.3448 2.32219C9.92508 1.90247 9.35581 1.66667 8.76223 1.66667H3.90509C3.31151 1.66667 2.74224 1.90247 2.32252 2.32219C1.90279 2.74192 1.66699 3.31119 1.66699 3.90477V8.76191C1.66699 9.35549 1.90279 9.92476 2.32251 10.3445L1.61541 11.0516C1.00815 10.4443 0.666992 9.62071 0.666992 8.76191V3.90477C0.666992 3.04597 1.00815 2.22235 1.61541 1.61509C2.22267 1.00783 3.04629 0.666672 3.90509 0.666672H8.76223C9.62103 0.666672 10.4446 1.00783 11.0519 1.61509ZM11.0519 1.61509L10.3448 2.32219C10.7645 2.74192 11.0003 3.31119 11.0003 3.90477V8.76191C11.0003 9.35549 10.7645 9.92476 10.3448 10.3445C9.92508 10.7642 9.35581 11 8.76223 11H3.90509C3.31151 11 2.74224 10.7642 2.32252 10.3445L1.61541 11.0516C2.22267 11.6588 3.04629 12 3.90509 12H8.76223C9.62103 12 10.4446 11.6588 11.0519 11.0516C11.6592 10.4443 12.0003 9.62071 12.0003 8.76191V3.90477C12.0003 3.04597 11.6592 2.22235 11.0519 1.61509Z" fill="#ACB2BB"/>
<path fill-rule="evenodd" clip-rule="evenodd" d="M4 12V12.0952C4 12.954 4.34116 13.7777 4.94842 14.3849C5.55568 14.9922 6.3793 15.3333 7.2381 15.3333H12.0952C12.954 15.3333 13.7777 14.9922 14.3849 14.3849C14.9922 13.7777 15.3333 12.954 15.3333 12.0952V7.2381C15.3333 6.3793 14.9922 5.55568 14.3849 4.94842C13.7777 4.34116 12.954 4 12.0952 4H12V5H12.0952C12.6888 5 13.2581 5.2358 13.6778 5.65552L14.3849 4.94842L13.6778 5.65552C14.0975 6.07525 14.3333 6.64451 14.3333 7.2381V12.0952C14.3333 12.6888 14.0975 13.2581 13.6778 13.6778C13.2581 14.0975 12.6888 14.3333 12.0952 14.3333H7.2381C6.64451 14.3333 6.07525 14.0975 5.65552 13.6778L4.94842 14.3849L5.65552 13.6778C5.2358 13.2581 5 12.6888 5 12.0952V12H4Z" fill="#ACB2BB"/>
</svg>
