<svg width="64" height="64" viewBox="0 0 64 64" fill="none" xmlns="http://www.w3.org/2000/svg">
<rect width="64" height="64" rx="32" fill="#090C14"/>
<path d="M53.2423 26.8431H52.6567V25.085V18.835C52.6567 16.7888 50.9919 15.124 48.9457 15.124H32.8536L21.9972 12.0222C21.994 12.0213 21.9908 12.0208 21.9877 12.02C21.9845 12.0191 21.9815 12.0179 21.9783 12.0171C21.9717 12.0154 21.9652 12.0147 21.9587 12.0132C21.9487 12.0111 21.9386 12.0089 21.9285 12.0073C21.9194 12.0058 21.9104 12.0049 21.9012 12.0038C21.8906 12.0025 21.8801 12.0014 21.8695 12.0008C21.8609 12.0004 21.8524 12.0003 21.8438 12.0001C21.8329 12 21.822 11.9999 21.8112 12.0004C21.8031 12.0007 21.7951 12.0014 21.7871 12.0021C21.7759 12.003 21.7648 12.004 21.7537 12.0057C21.7462 12.0068 21.7388 12.0082 21.7314 12.0095C21.72 12.0115 21.7087 12.0137 21.6976 12.0164C21.6906 12.0182 21.6838 12.0201 21.6769 12.0221C21.6655 12.0254 21.6543 12.0287 21.643 12.0326C21.6367 12.0349 21.6305 12.0373 21.6241 12.0398C21.6128 12.0442 21.6016 12.0488 21.5905 12.0539C21.5847 12.0566 21.579 12.0596 21.5732 12.0625C21.5622 12.068 21.5513 12.0736 21.5407 12.08C21.5351 12.0832 21.5298 12.0866 21.5244 12.09C21.5139 12.0966 21.5036 12.1033 21.4936 12.1106C21.4883 12.1143 21.4833 12.1184 21.4781 12.1224C21.4685 12.1298 21.459 12.1374 21.4498 12.1454C21.4447 12.15 21.4398 12.1547 21.4348 12.1594C21.4262 12.1675 21.4176 12.1757 21.4095 12.1843C21.4044 12.1897 21.3997 12.1953 21.3948 12.2009C21.3873 12.2094 21.38 12.218 21.373 12.227C21.368 12.2335 21.3633 12.2401 21.3586 12.2468C21.3524 12.2554 21.3463 12.2642 21.3407 12.2732C21.3358 12.2808 21.3314 12.2888 21.3269 12.2967C21.322 12.3054 21.3171 12.3141 21.3126 12.3231C21.3083 12.3318 21.3044 12.3408 21.3004 12.3498C21.2965 12.3586 21.2926 12.3675 21.2892 12.3765C21.2856 12.3861 21.2825 12.3958 21.2793 12.4057C21.2773 12.412 21.2748 12.4179 21.2729 12.4243C21.2719 12.4275 21.2716 12.4307 21.2707 12.4338C21.2698 12.437 21.2686 12.44 21.2678 12.4432L20.5978 15.1239H18.7113C16.6692 15.1239 15.0073 16.7819 15.0006 18.8225C15.0005 18.8267 15 18.8307 15 18.8349V32.5759C15 32.8993 15.2633 33.1618 15.5859 33.1618C15.9094 33.1618 16.1719 32.8993 16.1719 32.5759V21.5374C16.8362 22.1621 17.7295 22.546 18.7113 22.546H48.9457L48.9478 22.546C50.3468 22.5471 51.4848 23.6856 51.4848 25.0851V29.187H45.0385L45.0374 29.187C45.0205 29.187 45.0036 29.1881 44.9868 29.1895C44.9681 29.1912 44.9497 29.1938 44.9316 29.1972C44.9288 29.1977 44.9262 29.1979 44.9235 29.1984C44.9081 29.2015 44.8931 29.2056 44.8782 29.2098C44.8749 29.2107 44.8716 29.2113 44.8684 29.2124C44.8551 29.2164 44.8422 29.2213 44.8293 29.2262C44.8244 29.2281 44.8194 29.2296 44.8145 29.2317C44.8037 29.2361 44.7933 29.2413 44.7829 29.2464C44.776 29.2497 44.7691 29.2527 44.7624 29.2563C44.7542 29.2606 44.7466 29.2655 44.7388 29.2702C44.7301 29.2753 44.7213 29.2803 44.7128 29.2859C44.7071 29.2897 44.7019 29.294 44.6964 29.298C44.6864 29.3052 44.6764 29.3123 44.6668 29.3202C44.6627 29.3236 44.6588 29.3274 44.6549 29.3309C44.6446 29.3399 44.6344 29.3487 44.6247 29.3584C44.619 29.3641 44.6138 29.3703 44.6085 29.3763C44.6009 29.3845 44.5931 29.3925 44.5859 29.4013C44.5738 29.416 44.5624 29.4313 44.5518 29.4472L44.5512 29.4481L41.4264 34.1356C41.4046 34.1683 41.3861 34.2029 41.3715 34.2389C41.366 34.2523 41.3615 34.266 41.3571 34.2796C41.3557 34.2838 41.354 34.2877 41.3528 34.2919C41.3484 34.3063 41.345 34.3209 41.3418 34.3355C41.341 34.3393 41.3399 34.343 41.3391 34.3469C41.3365 34.36 41.3348 34.3732 41.3332 34.3864C41.3324 34.392 41.3314 34.3977 41.3308 34.4034C41.3297 34.4142 41.3295 34.425 41.3291 34.4359C41.3287 34.4441 41.328 34.4524 41.328 34.4608C41.328 34.4688 41.3287 34.4769 41.329 34.4849C41.3294 34.496 41.3297 34.5072 41.3308 34.5183C41.3314 34.5237 41.3324 34.5291 41.3331 34.5345C41.3348 34.5479 41.3365 34.5613 41.3392 34.5747C41.3399 34.5784 41.341 34.582 41.3418 34.5856C41.345 34.6003 41.3485 34.615 41.3528 34.6296C41.3541 34.6337 41.3558 34.6377 41.3571 34.642C41.3616 34.6555 41.366 34.6692 41.3716 34.6827C41.3863 34.7186 41.4047 34.7533 41.4266 34.786L44.5514 39.4729C44.5639 39.4916 44.5781 39.51 44.5927 39.5271C44.5974 39.5327 44.6025 39.538 44.6074 39.5433C44.6174 39.5541 44.6277 39.5646 44.6384 39.5747C44.6447 39.5806 44.651 39.5864 44.6574 39.5919C44.6688 39.6017 44.6806 39.6108 44.6927 39.6198C44.6981 39.6237 44.7034 39.6281 44.7089 39.6319C44.7265 39.6438 44.7447 39.6548 44.7635 39.6648C44.7683 39.6673 44.7732 39.6694 44.778 39.6718C44.793 39.6793 44.8083 39.6862 44.824 39.6924C44.8301 39.6948 44.8362 39.697 44.8424 39.6992C44.8573 39.7045 44.8724 39.7092 44.8879 39.7133C44.8942 39.715 44.9005 39.7167 44.9069 39.7183C44.9228 39.7219 44.9388 39.7248 44.9552 39.7271C44.9611 39.728 44.967 39.7291 44.9729 39.7298C44.9931 39.7321 45.0135 39.7334 45.0343 39.7335L45.0393 39.7338L45.0404 39.7337H51.485V43.8359C51.485 45.2361 50.3459 46.3751 48.9459 46.3751H18.7116C17.3116 46.3751 16.1726 45.2361 16.1726 43.8359C16.1726 43.8329 16.1722 43.8299 16.1721 43.8269V41.4914C16.1721 41.1687 15.9096 40.9055 15.5862 40.9055C15.2635 40.9055 15.0002 41.1687 15.0002 41.4914V43.8359C15.0002 43.842 15.0009 43.8479 15.0012 43.854C15.0109 45.8919 16.6715 47.547 18.7116 47.547H48.9459C50.992 47.547 52.6566 45.8826 52.6569 43.8365V39.7337H53.2425C54.2116 39.7337 55 38.9453 55 37.9762V28.6006C54.9998 27.6316 54.2113 26.8431 53.2423 26.8431ZM22.2578 13.3154L32.5968 16.2695L32.5982 16.2699L39.5276 18.2497H21.0245L22.2578 13.3154ZM51.4847 22.3824C50.8204 21.7578 49.9273 21.374 48.9457 21.374L48.9427 21.3742H18.7113C17.3112 21.3742 16.1722 20.2351 16.1722 18.835C16.1722 17.435 17.3112 16.2959 18.7113 16.2959H20.3049L19.8166 18.2497H18.7115C18.3879 18.2497 18.1255 18.5121 18.1255 18.8357C18.1255 19.1592 18.3879 19.4216 18.7115 19.4216H20.2721L20.2746 19.4217L20.2764 19.4216H43.7092L43.7114 19.4217L43.7133 19.4216H48.1638C48.4874 19.4216 48.7497 19.1592 48.7497 18.8357C48.7497 18.5121 48.4874 18.2497 48.1638 18.2497H43.7932L36.955 16.2959H48.9456C50.3456 16.2959 51.4847 17.435 51.4847 18.835V22.3824ZM53.8279 37.9759C53.8279 38.2988 53.5652 38.5616 53.2423 38.5616H45.3521L42.6178 34.4605L45.3521 30.3588H53.2423C53.2505 30.3588 53.2584 30.3578 53.2666 30.3575C53.4631 30.3548 53.6519 30.3198 53.8279 30.2574V37.9759ZM53.2423 29.1863C53.2382 29.1863 53.2342 29.1868 53.2302 29.1869H52.6567V28.015H53.2423C53.5652 28.015 53.8279 28.2777 53.8279 28.6006C53.8279 28.9235 53.5652 29.1863 53.2423 29.1863Z" fill="#F7931A"/>
<path d="M47.3826 32.312C46.1979 32.312 45.2341 33.2758 45.2341 34.4605C45.2341 35.6451 46.1979 36.6089 47.3826 36.6089C48.5672 36.6089 49.531 35.6451 49.531 34.4605C49.531 33.2758 48.5672 32.312 47.3826 32.312ZM47.3826 35.437C46.844 35.437 46.406 34.999 46.406 34.4605C46.406 33.9219 46.844 33.4838 47.3826 33.4838C47.9211 33.4838 48.3591 33.9219 48.3591 34.4605C48.3591 34.999 47.9211 35.437 47.3826 35.437Z" fill="#F7931A"/>
<circle cx="17" cy="43" r="8" fill="white"/>
<path d="M17 38V48" stroke="#03050B" stroke-width="2" stroke-linecap="round" stroke-linejoin="round"/>
<path d="M22 43L12 43" stroke="#03050B" stroke-width="2" stroke-linecap="round" stroke-linejoin="round"/>
</svg>
