<svg width="56" height="56" viewBox="0 0 56 56" fill="none" xmlns="http://www.w3.org/2000/svg">
<rect width="56" height="56" rx="28" fill="#090C14"/>
<mask id="path-2-inside-1" fill="white">
<path fill-rule="evenodd" clip-rule="evenodd" d="M33.9678 22.6852C33.9678 25.6519 31.5628 28.057 28.5961 28.057C25.6293 28.057 23.2243 25.6519 23.2243 22.6852C23.2243 19.7185 25.6293 17.3134 28.5961 17.3134C31.5628 17.3134 33.9678 19.7185 33.9678 22.6852ZM35.2987 28.0721H23.3195L17.6438 27.4085L20.699 23.7379C21.6147 22.6377 21.4652 21.0034 20.3651 20.0875C19.2646 19.1719 17.6305 19.3216 16.7149 20.4215L10.5998 27.7693C9.99137 28.5003 9.83217 29.5058 10.185 30.3891C10.5379 31.2721 11.3462 31.891 12.2907 32.0018L21.4354 33.071L21.4357 43C21.4357 43.5523 21.8834 44 22.4357 44H34.1762C34.729 44 35.1769 43.5515 35.1762 42.9987L35.1651 34.2208C35.1649 33.9249 35.4016 33.6836 35.6971 33.6782C35.993 33.6729 36.2385 33.9051 36.2487 34.2007L36.2917 43.0049C36.2944 43.5553 36.7413 44 37.2917 44H40.4754C41.0296 44 41.4781 43.5493 41.4754 42.9951L41.4324 34.1747C41.4152 30.8096 38.6637 28.0721 35.2987 28.0721Z"/>
</mask>
<path d="M23.3195 28.0721L23.2034 29.0653L23.2613 29.0721H23.3195V28.0721ZM17.6438 27.4085L16.8752 26.7688L15.6944 28.1874L17.5277 28.4018L17.6438 27.4085ZM20.699 23.7379L21.4676 24.3776L21.4677 24.3776L20.699 23.7379ZM20.3651 20.0875L21.0048 19.319L21.0047 19.3188L20.3651 20.0875ZM16.7149 20.4215L15.9463 19.7818L15.9463 19.7818L16.7149 20.4215ZM10.5998 27.7693L9.83113 27.1296L9.83112 27.1296L10.5998 27.7693ZM10.185 30.3891L9.25637 30.76L9.2564 30.7601L10.185 30.3891ZM12.2907 32.0018L12.1742 32.995L12.1745 32.995L12.2907 32.0018ZM21.4354 33.071L22.4354 33.071L22.4354 32.1811L21.5516 32.0778L21.4354 33.071ZM35.1651 34.2208L34.1651 34.2215V34.222L35.1651 34.2208ZM35.6971 33.6782L35.679 32.6784H35.679L35.6971 33.6782ZM36.2487 34.2007L37.2487 34.1959L37.2487 34.181L37.2481 34.1661L36.2487 34.2007ZM41.4324 34.1747L42.4324 34.1698V34.1696L41.4324 34.1747ZM41.4754 42.9951L42.4754 42.9903L41.4754 42.9951ZM35.1762 42.9987L34.1762 43L35.1762 42.9987ZM36.2917 43.0049L35.2917 43.0098L36.2917 43.0049ZM21.4357 43L20.4357 43.0001L21.4357 43ZM28.5961 29.057C32.1151 29.057 34.9678 26.2042 34.9678 22.6852H32.9678C32.9678 25.0997 31.0105 27.057 28.5961 27.057V29.057ZM22.2243 22.6852C22.2243 26.2042 25.077 29.057 28.5961 29.057V27.057C26.1816 27.057 24.2243 25.0997 24.2243 22.6852H22.2243ZM28.5961 16.3134C25.077 16.3134 22.2243 19.1662 22.2243 22.6852H24.2243C24.2243 20.2707 26.1816 18.3134 28.5961 18.3134V16.3134ZM34.9678 22.6852C34.9678 19.1662 32.1151 16.3134 28.5961 16.3134V18.3134C31.0105 18.3134 32.9678 20.2707 32.9678 22.6852H34.9678ZM23.3195 29.0721H35.2987V27.0721H23.3195V29.0721ZM17.5277 28.4018L23.2034 29.0653L23.4356 27.0789L17.7599 26.4153L17.5277 28.4018ZM19.9305 23.0982L16.8752 26.7688L18.4124 28.0483L21.4676 24.3776L19.9305 23.0982ZM19.7253 20.8561C20.401 21.4186 20.4928 22.4225 19.9304 23.0982L21.4677 24.3776C22.7365 22.853 22.5295 20.5882 21.0048 19.319L19.7253 20.8561ZM17.4835 21.0613C18.0458 20.3858 19.0495 20.2938 19.7254 20.8562L21.0047 19.3188C19.4798 18.0501 17.2153 18.2573 15.9463 19.7818L17.4835 21.0613ZM11.3684 28.409L17.4835 21.0612L15.9463 19.7818L9.83113 27.1296L11.3684 28.409ZM11.1137 30.0181C10.8969 29.4756 10.9947 28.858 11.3684 28.409L9.83112 27.1296C8.98802 28.1427 8.76741 29.536 9.25637 30.76L11.1137 30.0181ZM12.4072 31.0086C11.8267 30.9405 11.3303 30.5602 11.1136 30.018L9.2564 30.7601C9.74544 31.984 10.8656 32.8415 12.1742 32.995L12.4072 31.0086ZM21.5516 32.0778L12.4068 31.0085L12.1745 32.995L21.3193 34.0642L21.5516 32.0778ZM22.4357 43L22.4354 33.071L20.4354 33.071L20.4357 43.0001L22.4357 43ZM34.1762 43H22.4357V45H34.1762V43ZM34.1651 34.222L34.1762 43L36.1762 42.9975L36.1651 34.2195L34.1651 34.222ZM35.679 32.6784C34.8375 32.6936 34.1644 33.3807 34.1651 34.2215L36.1651 34.22C36.1653 34.4691 35.9657 34.6735 35.7153 34.6781L35.679 32.6784ZM37.2481 34.1661C37.2189 33.3233 36.5189 32.6632 35.679 32.6784L35.7152 34.6781C35.467 34.6826 35.2581 34.487 35.2493 34.2354L37.2481 34.1661ZM37.2917 43L37.2487 34.1959L35.2488 34.2056L35.2917 43.0098L37.2917 43ZM40.4754 43H37.2917V45H40.4754V43ZM40.4325 34.1795L40.4754 43L42.4754 42.9903L42.4324 34.1698L40.4325 34.1795ZM35.2987 29.0721C38.1134 29.0721 40.4181 31.365 40.4325 34.1798L42.4324 34.1696C42.4124 30.2543 39.214 27.0721 35.2987 27.0721V29.0721ZM40.4754 45C41.5838 45 42.4808 44.0986 42.4754 42.9903L40.4754 43V43V45ZM34.1762 45C35.2818 45 36.1776 44.103 36.1762 42.9975L34.1762 43V45ZM35.2917 43.0098C35.2971 44.1105 36.191 45 37.2917 45V43L35.2917 43.0098ZM20.4357 43.0001C20.4357 44.1046 21.3312 45 22.4357 45V43H22.4357L20.4357 43.0001Z" fill="#F7931A" mask="url(#path-2-inside-1)"/>
<path fill-rule="evenodd" clip-rule="evenodd" d="M33.8748 15.6068C33.7265 14.2798 34.445 13.1477 35.5975 12.4968C37.1006 11.6479 38.8296 11.8246 39.7833 13.5128C40.6332 15.0176 39.9819 15.9926 39.41 16.8487C39.313 16.9939 39.2183 17.1357 39.1336 17.276C38.9295 17.6142 38.7753 17.947 38.9365 18.2323L36.9893 19.332C36.5711 18.5915 36.3003 17.9046 36.9388 16.9249C36.9728 16.8704 37.0192 16.8019 37.073 16.7224C37.4131 16.2206 38.049 15.2822 37.7035 14.6706C37.4737 14.2636 36.9737 14.2544 36.5951 14.4682C36.0966 14.7498 36.0563 15.2629 36.0292 15.6094C36.0225 15.6946 36.0166 15.7697 36.0049 15.8288L33.8748 15.6068ZM37.7011 20.5042L39.6482 19.4045L40.8117 21.4645L38.8645 22.5642L37.7011 20.5042Z" fill="#F7931A"/>
</svg>
