<svg width="16" height="16" viewBox="0 0 16 16" fill="none" xmlns="http://www.w3.org/2000/svg">
<path fill-rule="evenodd" clip-rule="evenodd" d="M11.6459 11.354C11.5994 11.3076 11.5624 11.2524 11.5372 11.1917C11.512 11.1309 11.499 11.0658 11.499 11C11.499 10.9343 11.512 10.8691 11.5372 10.8084C11.5624 10.7476 11.5994 10.6925 11.6459 10.646L14.2929 8.00002L11.6459 5.35402C11.552 5.26014 11.4993 5.1328 11.4993 5.00002C11.4993 4.86725 11.552 4.73991 11.6459 4.64602C11.7398 4.55213 11.8671 4.49939 11.9999 4.49939C12.1327 4.49939 12.26 4.55213 12.3539 4.64602L15.3539 7.64602C15.4005 7.69247 15.4374 7.74764 15.4626 7.80839C15.4878 7.86913 15.5008 7.93425 15.5008 8.00002C15.5008 8.06579 15.4878 8.13091 15.4626 8.19166C15.4374 8.2524 15.4005 8.30758 15.3539 8.35402L12.3539 11.354C12.3075 11.4006 12.2523 11.4375 12.1916 11.4627C12.1308 11.4879 12.0657 11.5009 11.9999 11.5009C11.9341 11.5009 11.869 11.4879 11.8083 11.4627C11.7475 11.4375 11.6924 11.4006 11.6459 11.354V11.354Z" fill="#ACB2BB"/>
<path fill-rule="evenodd" clip-rule="evenodd" d="M4.5 8C4.5 7.86739 4.55268 7.74021 4.64645 7.64645C4.74021 7.55268 4.86739 7.5 5 7.5H14C14.1326 7.5 14.2598 7.55268 14.3536 7.64645C14.4473 7.74021 14.5 7.86739 14.5 8C14.5 8.13261 14.4473 8.25979 14.3536 8.35355C14.2598 8.44732 14.1326 8.5 14 8.5H5C4.86739 8.5 4.74021 8.44732 4.64645 8.35355C4.55268 8.25979 4.5 8.13261 4.5 8Z" fill="#ACB2BB"/>
<path fill-rule="evenodd" clip-rule="evenodd" d="M2 13.5C1.60218 13.5 1.22064 13.342 0.93934 13.0607C0.658035 12.7794 0.5 12.3978 0.5 12V4C0.5 3.60218 0.658035 3.22064 0.93934 2.93934C1.22064 2.65804 1.60218 2.5 2 2.5H9C9.39782 2.5 9.77936 2.65804 10.0607 2.93934C10.342 3.22064 10.5 3.60218 10.5 4V5.5C10.5 5.63261 10.4473 5.75979 10.3536 5.85355C10.2598 5.94732 10.1326 6 10 6C9.86739 6 9.74021 5.94732 9.64645 5.85355C9.55268 5.75979 9.5 5.63261 9.5 5.5V4C9.5 3.86739 9.44732 3.74021 9.35355 3.64645C9.25979 3.55268 9.13261 3.5 9 3.5H2C1.86739 3.5 1.74021 3.55268 1.64645 3.64645C1.55268 3.74021 1.5 3.86739 1.5 4V12C1.5 12.1326 1.55268 12.2598 1.64645 12.3536C1.74021 12.4473 1.86739 12.5 2 12.5H9C9.13261 12.5 9.25979 12.4473 9.35355 12.3536C9.44732 12.2598 9.5 12.1326 9.5 12V10.5C9.5 10.3674 9.55268 10.2402 9.64645 10.1464C9.74021 10.0527 9.86739 10 10 10C10.1326 10 10.2598 10.0527 10.3536 10.1464C10.4473 10.2402 10.5 10.3674 10.5 10.5V12C10.5 12.3978 10.342 12.7794 10.0607 13.0607C9.77936 13.342 9.39782 13.5 9 13.5H2Z" fill="#ACB2BB"/>
</svg>
