<svg width="16" height="16" viewBox="0 0 16 16" fill="none" xmlns="http://www.w3.org/2000/svg">
<path fill-rule="evenodd" clip-rule="evenodd" d="M1.5 13C1.5 13.3978 1.65804 13.7794 1.93934 14.0607C2.22064 14.342 2.60218 14.5 3 14.5H11C11.3978 14.5 11.7794 14.342 12.0607 14.0607C12.342 13.7794 12.5 13.3978 12.5 13V9C12.5 8.86739 12.4473 8.74021 12.3536 8.64645C12.2598 8.55268 12.1326 8.5 12 8.5C11.8674 8.5 11.7402 8.55268 11.6464 8.64645C11.5527 8.74021 11.5 8.86739 11.5 9V13C11.5 13.1326 11.4473 13.2598 11.3536 13.3536C11.2598 13.4473 11.1326 13.5 11 13.5H3C2.86739 13.5 2.74021 13.4473 2.64645 13.3536C2.55268 13.2598 2.5 13.1326 2.5 13V5C2.5 4.86739 2.55268 4.74021 2.64645 4.64645C2.74021 4.55268 2.86739 4.5 3 4.5H7C7.13261 4.5 7.25979 4.44732 7.35355 4.35355C7.44732 4.25979 7.5 4.13261 7.5 4C7.5 3.86739 7.44732 3.74021 7.35355 3.64645C7.25979 3.55268 7.13261 3.5 7 3.5H3C2.60218 3.5 2.22064 3.65804 1.93934 3.93934C1.65804 4.22064 1.5 4.60218 1.5 5V13ZM8.5 2C8.5 1.86739 8.55268 1.74021 8.64645 1.64645C8.74021 1.55268 8.86739 1.5 9 1.5H14C14.1326 1.5 14.2598 1.55268 14.3536 1.64645C14.4473 1.74021 14.5 1.86739 14.5 2V7C14.5 7.13261 14.4473 7.25979 14.3536 7.35355C14.2598 7.44732 14.1326 7.5 14 7.5C13.8674 7.5 13.7402 7.44732 13.6464 7.35355C13.5527 7.25979 13.5 7.13261 13.5 7V2.5H9C8.86739 2.5 8.74021 2.44732 8.64645 2.35355C8.55268 2.25979 8.5 2.13261 8.5 2Z" fill="#ACB2BB"/>
<path fill-rule="evenodd" clip-rule="evenodd" d="M14.3541 1.64598C14.4007 1.69242 14.4376 1.7476 14.4629 1.80834C14.4881 1.86909 14.501 1.93421 14.501 1.99998C14.501 2.06575 14.4881 2.13087 14.4629 2.19161C14.4376 2.25236 14.4007 2.30753 14.3541 2.35398L6.35414 10.354C6.30766 10.4005 6.25247 10.4373 6.19173 10.4625C6.13099 10.4877 6.06589 10.5006 6.00014 10.5006C5.9344 10.5006 5.8693 10.4877 5.80856 10.4625C5.74782 10.4373 5.69263 10.4005 5.64614 10.354C5.59966 10.3075 5.56278 10.2523 5.53762 10.1916C5.51246 10.1308 5.49951 10.0657 5.49951 9.99998C5.49951 9.93423 5.51246 9.86913 5.53762 9.80839C5.56278 9.74765 5.59966 9.69246 5.64614 9.64598L13.6461 1.64598C13.6926 1.59942 13.7478 1.56247 13.8085 1.53727C13.8693 1.51206 13.9344 1.49908 14.0001 1.49908C14.0659 1.49908 14.131 1.51206 14.1918 1.53727C14.2525 1.56247 14.3077 1.59942 14.3541 1.64598Z" fill="#ACB2BB"/>
</svg>
