<svg width="16" height="16" viewBox="0 0 16 16" fill="none" xmlns="http://www.w3.org/2000/svg">
<g clip-path="url(#clip0)">
<path fill-rule="evenodd" clip-rule="evenodd" d="M8.84431 1.6335C8.59831 0.798496 7.41631 0.798496 7.17031 1.6335L7.07631 1.9525C6.99726 2.22044 6.85927 2.46731 6.67244 2.67502C6.48562 2.88272 6.2547 3.04601 5.9966 3.15291C5.7385 3.25982 5.45975 3.30763 5.18078 3.29285C4.90181 3.27807 4.62967 3.20107 4.38431 3.0675L4.09231 2.9075C3.32831 2.4925 2.49231 3.3275 2.90831 4.0925L3.06731 4.3845C3.20089 4.62986 3.27789 4.90199 3.29267 5.18096C3.30745 5.45994 3.25963 5.73868 3.15273 5.99679C3.04583 6.25489 2.88254 6.48581 2.67483 6.67263C2.46713 6.85945 2.22026 6.99744 1.95231 7.0765L1.63331 7.1705C0.798313 7.4165 0.798313 8.5985 1.63331 8.8445L1.95231 8.9385C2.2204 9.01752 2.4674 9.15553 2.67521 9.34242C2.88302 9.52931 3.04638 9.76034 3.15329 10.0186C3.26021 10.2768 3.30798 10.5557 3.2931 10.8348C3.27823 11.1139 3.20108 11.3861 3.06731 11.6315L2.90731 11.9225C2.49231 12.6865 3.32731 13.5225 4.09231 13.1065L4.38431 12.9475C4.62974 12.8139 4.90194 12.737 5.18097 12.7223C5.46 12.7075 5.73878 12.7554 5.9969 12.8624C6.25501 12.9694 6.48592 13.1328 6.67269 13.3407C6.85946 13.5485 6.99737 13.7955 7.07631 14.0635L7.17031 14.3815C7.41631 15.2165 8.59831 15.2165 8.84431 14.3815L8.93831 14.0625C9.01733 13.7944 9.15535 13.5474 9.34224 13.3396C9.52913 13.1318 9.76016 12.9684 10.0184 12.8615C10.2766 12.7546 10.5555 12.7068 10.8346 12.7217C11.1137 12.7366 11.3859 12.8137 11.6313 12.9475L11.9223 13.1075C12.6863 13.5225 13.5223 12.6875 13.1063 11.9225L12.9473 11.6315C12.8136 11.386 12.7365 11.1137 12.7216 10.8346C12.7068 10.5554 12.7547 10.2765 12.8617 10.0183C12.9687 9.76003 13.1322 9.52902 13.3401 9.34218C13.548 9.15533 13.7951 9.0174 14.0633 8.9385L14.3813 8.8445C15.2163 8.5985 15.2163 7.4165 14.3813 7.1705L14.0623 7.0765C13.7944 6.99744 13.5475 6.85945 13.3398 6.67263C13.1321 6.48581 12.9688 6.25489 12.8619 5.99679C12.755 5.73868 12.7072 5.45994 12.722 5.18096C12.7367 4.90199 12.8137 4.62986 12.9473 4.3845L13.1073 4.0925C13.5223 3.3285 12.6873 2.4925 11.9223 2.9085L11.6313 3.0675C11.3859 3.20145 11.1136 3.27875 10.8343 3.29372C10.5551 3.3087 10.2761 3.26097 10.0178 3.15404C9.7594 3.04711 9.52826 2.88369 9.3413 2.67577C9.15434 2.46786 9.0163 2.22072 8.93731 1.9525L8.84331 1.6335H8.84431ZM6.21131 1.3505C6.73831 -0.439504 9.27631 -0.439504 9.80331 1.3505L9.89731 1.6695C9.93412 1.79445 9.99842 1.90958 10.0855 2.00645C10.1726 2.10333 10.2802 2.17949 10.4006 2.22935C10.5209 2.27921 10.6509 2.30151 10.781 2.29461C10.911 2.28772 11.0379 2.2518 11.1523 2.1895L11.4443 2.0295C13.0843 1.1375 14.8783 2.9305 13.9843 4.5705L13.8253 4.8625C13.763 4.97689 13.7271 5.10377 13.7202 5.23385C13.7133 5.36393 13.7356 5.4939 13.7855 5.61424C13.8353 5.73458 13.9115 5.84223 14.0084 5.92931C14.1052 6.01639 14.2204 6.08069 14.3453 6.1175L14.6643 6.2115C16.4543 6.7385 16.4543 9.27649 14.6643 9.8035L14.3453 9.8975C14.2204 9.9343 14.1052 9.9986 14.0084 10.0857C13.9115 10.1728 13.8353 10.2804 13.7855 10.4008C13.7356 10.5211 13.7133 10.6511 13.7202 10.7811C13.7271 10.9112 13.763 11.0381 13.8253 11.1525L13.9853 11.4445C14.8783 13.0845 13.0833 14.8785 11.4443 13.9845L11.1523 13.8255C11.0379 13.7632 10.911 13.7273 10.781 13.7204C10.6509 13.7135 10.5209 13.7358 10.4006 13.7856C10.2802 13.8355 10.1726 13.9117 10.0855 14.0085C9.99842 14.1054 9.93412 14.2205 9.89731 14.3455L9.80331 14.6645C9.27631 16.4545 6.73831 16.4545 6.21131 14.6645L6.11731 14.3455C6.08051 14.2205 6.01621 14.1054 5.92913 14.0085C5.84205 13.9117 5.73439 13.8355 5.61405 13.7856C5.49372 13.7358 5.36374 13.7135 5.23367 13.7204C5.10359 13.7273 4.97671 13.7632 4.86231 13.8255L4.57031 13.9855C2.93031 14.8785 1.13731 13.0835 2.03031 11.4445L2.18931 11.1525C2.25162 11.0381 2.28753 10.9112 2.29443 10.7811C2.30133 10.6511 2.27903 10.5211 2.22916 10.4008C2.1793 10.2804 2.10314 10.1728 2.00627 10.0857C1.9094 9.9986 1.79426 9.9343 1.66931 9.8975L1.35031 9.8035C-0.439688 9.27649 -0.439688 6.7385 1.35031 6.2115L1.66931 6.1175C1.79426 6.08069 1.9094 6.01639 2.00627 5.92931C2.10314 5.84223 2.1793 5.73458 2.22916 5.61424C2.27903 5.4939 2.30133 5.36393 2.29443 5.23385C2.28753 5.10377 2.25162 4.97689 2.18931 4.8625L2.02931 4.5705C1.13731 2.9305 2.93131 1.1375 4.57031 2.0305L4.86231 2.1895C4.97671 2.2518 5.10359 2.28772 5.23367 2.29461C5.36374 2.30151 5.49372 2.27921 5.61405 2.22935C5.73439 2.17949 5.84205 2.10333 5.92913 2.00645C6.01621 1.90958 6.08051 1.79445 6.11731 1.6695L6.21131 1.3505Z" fill="#7E858F"/>
<path fill-rule="evenodd" clip-rule="evenodd" d="M7.99991 5.75397C7.40423 5.75397 6.83295 5.9906 6.41174 6.41181C5.99054 6.83301 5.75391 7.40429 5.75391 7.99997C5.75391 8.59564 5.99054 9.16692 6.41174 9.58813C6.83295 10.0093 7.40423 10.246 7.99991 10.246C8.59558 10.246 9.16686 10.0093 9.58807 9.58813C10.0093 9.16692 10.2459 8.59564 10.2459 7.99997C10.2459 7.40429 10.0093 6.83301 9.58807 6.41181C9.16686 5.9906 8.59558 5.75397 7.99991 5.75397ZM4.75391 7.99997C4.75391 7.5737 4.83787 7.1516 5.00099 6.75778C5.16412 6.36395 5.40322 6.00612 5.70464 5.7047C6.00606 5.40328 6.36389 5.16418 6.75772 5.00105C7.15154 4.83793 7.57364 4.75397 7.99991 4.75397C8.42618 4.75397 8.84827 4.83793 9.2421 5.00105C9.63592 5.16418 9.99376 5.40328 10.2952 5.7047C10.5966 6.00612 10.8357 6.36395 10.9988 6.75778C11.1619 7.1516 11.2459 7.5737 11.2459 7.99997C11.2459 8.86086 10.9039 9.68649 10.2952 10.2952C9.68643 10.904 8.8608 11.246 7.99991 11.246C7.13901 11.246 6.31338 10.904 5.70464 10.2952C5.09589 9.68649 4.75391 8.86086 4.75391 7.99997Z" fill="#7E858F"/>
</g>
<defs>
<clipPath id="clip0">
<rect width="16" height="16" fill="white"/>
</clipPath>
</defs>
</svg>
