<svg width="16" height="16" viewBox="0 0 16 16" fill="none" xmlns="http://www.w3.org/2000/svg">
<g clip-path="url(#clip0)">
<path fill-rule="evenodd" clip-rule="evenodd" d="M8.84456 1.6335C8.59856 0.798503 7.41656 0.798503 7.17056 1.6335L7.07656 1.9525C6.9975 2.22045 6.85951 2.46732 6.67269 2.67502C6.48587 2.88273 6.25495 3.04602 5.99685 3.15292C5.73875 3.25982 5.46 3.30764 5.18103 3.29286C4.90205 3.27808 4.62992 3.20108 4.38456 3.0675L4.09256 2.9075C3.32856 2.4925 2.49256 3.3275 2.90856 4.0925L3.06756 4.3845C3.20113 4.62986 3.27813 4.902 3.29291 5.18097C3.30769 5.45994 3.25988 5.73869 3.15297 5.99679C3.04607 6.25489 2.88278 6.48581 2.67508 6.67263C2.46737 6.85946 2.2205 6.99745 1.95256 7.0765L1.63356 7.1705C0.798557 7.4165 0.798557 8.5985 1.63356 8.8445L1.95256 8.9385C2.22064 9.01752 2.46764 9.15554 2.67546 9.34243C2.88327 9.52932 3.04662 9.76035 3.15354 10.0186C3.26045 10.2768 3.30822 10.5557 3.29335 10.8348C3.27847 11.1139 3.20132 11.3861 3.06756 11.6315L2.90756 11.9225C2.49256 12.6865 3.32756 13.5225 4.09256 13.1065L4.38456 12.9475C4.62998 12.8139 4.90218 12.737 5.18121 12.7223C5.46024 12.7075 5.73903 12.7554 5.99714 12.8625C6.25526 12.9695 6.48616 13.1329 6.67293 13.3407C6.85971 13.5485 6.99762 13.7955 7.07656 14.0635L7.17056 14.3815C7.41656 15.2165 8.59856 15.2165 8.84456 14.3815L8.93856 14.0625C9.01758 13.7944 9.15559 13.5474 9.34248 13.3396C9.52937 13.1318 9.7604 12.9684 10.0186 12.8615C10.2769 12.7546 10.5557 12.7068 10.8348 12.7217C11.1139 12.7366 11.3862 12.8137 11.6316 12.9475L11.9226 13.1075C12.6866 13.5225 13.5226 12.6875 13.1066 11.9225L12.9476 11.6315C12.8138 11.386 12.7367 11.1137 12.7219 10.8346C12.7071 10.5555 12.7549 10.2765 12.8619 10.0183C12.969 9.76004 13.1324 9.52903 13.3404 9.34218C13.5483 9.15534 13.7954 9.01741 14.0636 8.9385L14.3816 8.8445C15.2166 8.5985 15.2166 7.4165 14.3816 7.1705L14.0626 7.0765C13.7946 6.99745 13.5477 6.85946 13.34 6.67263C13.1323 6.48581 12.969 6.25489 12.8621 5.99679C12.7552 5.73869 12.7074 5.45994 12.7222 5.18097C12.737 4.902 12.814 4.62986 12.9476 4.3845L13.1076 4.0925C13.5226 3.3285 12.6876 2.4925 11.9226 2.9085L11.6316 3.0675C11.3861 3.20145 11.1138 3.27875 10.8346 3.29373C10.5554 3.30871 10.2764 3.26098 10.018 3.15405C9.75964 3.04712 9.5285 2.8837 9.34154 2.67578C9.15458 2.46787 9.01654 2.22073 8.93756 1.9525L8.84356 1.6335H8.84456ZM6.21156 1.3505C6.73856 -0.439497 9.27656 -0.439497 9.80356 1.3505L9.89756 1.6695C9.93436 1.79446 9.99866 1.90959 10.0857 2.00646C10.1728 2.10334 10.2805 2.17949 10.4008 2.22936C10.5212 2.27922 10.6511 2.30152 10.7812 2.29462C10.9113 2.28773 11.0382 2.25181 11.1526 2.1895L11.4446 2.0295C13.0846 1.1375 14.8786 2.9305 13.9846 4.5705L13.8256 4.8625C13.7633 4.9769 13.7273 5.10378 13.7204 5.23386C13.7135 5.36393 13.7358 5.49391 13.7857 5.61424C13.8356 5.73458 13.9117 5.84224 14.0086 5.92932C14.1055 6.0164 14.2206 6.0807 14.3456 6.1175L14.6646 6.2115C16.4546 6.7385 16.4546 9.2765 14.6646 9.8035L14.3456 9.8975C14.2206 9.93431 14.1055 9.99861 14.0086 10.0857C13.9117 10.1728 13.8356 10.2804 13.7857 10.4008C13.7358 10.5211 13.7135 10.6511 13.7204 10.7811C13.7273 10.9112 13.7633 11.0381 13.8256 11.1525L13.9856 11.4445C14.8786 13.0845 13.0836 14.8785 11.4446 13.9845L11.1526 13.8255C11.0382 13.7632 10.9113 13.7273 10.7812 13.7204C10.6511 13.7135 10.5212 13.7358 10.4008 13.7857C10.2805 13.8355 10.1728 13.9117 10.0857 14.0085C9.99866 14.1054 9.93436 14.2206 9.89756 14.3455L9.80356 14.6645C9.27656 16.4545 6.73856 16.4545 6.21156 14.6645L6.11756 14.3455C6.08075 14.2206 6.01645 14.1054 5.92937 14.0085C5.84229 13.9117 5.73464 13.8355 5.6143 13.7857C5.49396 13.7358 5.36399 13.7135 5.23391 13.7204C5.10383 13.7273 4.97695 13.7632 4.86256 13.8255L4.57056 13.9855C2.93056 14.8785 1.13756 13.0835 2.03056 11.4445L2.18956 11.1525C2.25186 11.0381 2.28778 10.9112 2.29467 10.7811C2.30157 10.6511 2.27927 10.5211 2.22941 10.4008C2.17955 10.2804 2.10339 10.1728 2.00652 10.0857C1.90964 9.99861 1.79451 9.93431 1.66956 9.8975L1.35056 9.8035C-0.439443 9.2765 -0.439443 6.7385 1.35056 6.2115L1.66956 6.1175C1.79451 6.0807 1.90964 6.0164 2.00652 5.92932C2.10339 5.84224 2.17955 5.73458 2.22941 5.61424C2.27927 5.49391 2.30157 5.36393 2.29467 5.23386C2.28778 5.10378 2.25186 4.9769 2.18956 4.8625L2.02956 4.5705C1.13756 2.9305 2.93156 1.1375 4.57056 2.0305L4.86256 2.1895C4.97695 2.25181 5.10383 2.28773 5.23391 2.29462C5.36399 2.30152 5.49396 2.27922 5.6143 2.22936C5.73464 2.17949 5.84229 2.10334 5.92937 2.00646C6.01645 1.90959 6.08075 1.79446 6.11756 1.6695L6.21156 1.3505V1.3505Z" fill="white"/>
<path fill-rule="evenodd" clip-rule="evenodd" d="M8.00003 5.75396C7.40435 5.75396 6.83307 5.99059 6.41187 6.4118C5.99066 6.833 5.75403 7.40428 5.75403 7.99996C5.75403 8.59564 5.99066 9.16692 6.41187 9.58812C6.83307 10.0093 7.40435 10.246 8.00003 10.246C8.5957 10.246 9.16698 10.0093 9.58819 9.58812C10.0094 9.16692 10.246 8.59564 10.246 7.99996C10.246 7.40428 10.0094 6.833 9.58819 6.4118C9.16698 5.99059 8.5957 5.75396 8.00003 5.75396V5.75396ZM4.75403 7.99996C4.75403 7.57369 4.83799 7.15159 5.00112 6.75777C5.16424 6.36395 5.40334 6.00611 5.70476 5.70469C6.00618 5.40327 6.36401 5.16417 6.75784 5.00105C7.15166 4.83792 7.57376 4.75396 8.00003 4.75396C8.4263 4.75396 8.8484 4.83792 9.24222 5.00105C9.63604 5.16417 9.99388 5.40327 10.2953 5.70469C10.5967 6.00611 10.8358 6.36395 10.9989 6.75777C11.1621 7.15159 11.246 7.57369 11.246 7.99996C11.246 8.86085 10.904 9.68649 10.2953 10.2952C9.68655 10.904 8.86092 11.246 8.00003 11.246C7.13914 11.246 6.3135 10.904 5.70476 10.2952C5.09602 9.68649 4.75403 8.86085 4.75403 7.99996V7.99996Z" fill="white"/>
</g>
<defs>
<clipPath id="clip0">
<rect width="16" height="16" fill="white"/>
</clipPath>
</defs>
</svg>
