<svg width="57" height="56" viewBox="0 0 57 56" fill="none" xmlns="http://www.w3.org/2000/svg">
<rect x="0.5" width="56" height="56" rx="28" fill="#090C14"/>
<path d="M41.9729 40.5405H16.0269C15.4537 40.5399 14.9041 40.3118 14.4988 39.9065C14.0935 39.5012 13.8654 38.9516 13.8647 38.3784V15.4595C13.8654 14.8862 14.0935 14.3367 14.4988 13.9313C14.9041 13.526 15.4537 13.298 16.0269 13.2973H41.9729C42.5461 13.298 43.0956 13.526 43.501 13.9313C43.9063 14.3367 44.1343 14.8862 44.135 15.4595V38.3784C44.1343 38.9516 43.9063 39.5012 43.501 39.9065C43.0956 40.3118 42.5461 40.5399 41.9729 40.5405ZM16.0269 14.1622C15.6828 14.1622 15.3529 14.2988 15.1096 14.5421C14.8663 14.7854 14.7296 15.1154 14.7296 15.4595V38.3784C14.7296 38.7224 14.8663 39.0524 15.1096 39.2957C15.3529 39.539 15.6828 39.6757 16.0269 39.6757H41.9729C42.3169 39.6757 42.6469 39.539 42.8902 39.2957C43.1335 39.0524 43.2702 38.7224 43.2702 38.3784V15.4595C43.2702 15.1154 43.1335 14.7854 42.8902 14.5421C42.6469 14.2988 42.3169 14.1622 41.9729 14.1622H16.0269Z" fill="#F7931A"/>
<path d="M18.189 29.946C18.0743 29.946 17.9643 29.9004 17.8832 29.8193C17.8022 29.7382 17.7566 29.6282 17.7566 29.5135V24.3243C17.7566 24.2097 17.8022 24.0997 17.8832 24.0186C17.9643 23.9375 18.0743 23.8919 18.189 23.8919C18.3037 23.8919 18.4137 23.9375 18.4948 24.0186C18.5759 24.0997 18.6215 24.2097 18.6215 24.3243V29.5135C18.6215 29.6282 18.5759 29.7382 18.4948 29.8193C18.4137 29.9004 18.3037 29.946 18.189 29.946Z" fill="#F7931A"/>
<path d="M39.8106 36.6486H18.189C18.0743 36.6486 17.9643 36.6031 17.8832 36.522C17.8022 36.4409 17.7566 36.3309 17.7566 36.2162V32.973C17.7566 32.8583 17.8022 32.7483 17.8832 32.6672C17.9643 32.5861 18.0743 32.5405 18.189 32.5405C18.3037 32.5405 18.4137 32.5861 18.4948 32.6672C18.5759 32.7483 18.6215 32.8583 18.6215 32.973V35.7838H39.3782V18.054H18.6215V20.8649C18.6215 20.9795 18.5759 21.0895 18.4948 21.1706C18.4137 21.2517 18.3037 21.2973 18.189 21.2973C18.0743 21.2973 17.9643 21.2517 17.8832 21.1706C17.8022 21.0895 17.7566 20.9795 17.7566 20.8649V17.6216C17.7566 17.5069 17.8022 17.3969 17.8832 17.3158C17.9643 17.2347 18.0743 17.1892 18.189 17.1892H39.8106C39.9253 17.1892 40.0353 17.2347 40.1164 17.3158C40.1975 17.3969 40.2431 17.5069 40.2431 17.6216V36.2162C40.2431 36.3309 40.1975 36.4409 40.1164 36.522C40.0353 36.6031 39.9253 36.6486 39.8106 36.6486Z" fill="#F7931A"/>
<path d="M22.0811 42.7027H18.6216C18.507 42.7027 18.397 42.6572 18.3159 42.5761C18.2348 42.495 18.1892 42.385 18.1892 42.2703V40.1082C18.1892 39.9935 18.2348 39.8835 18.3159 39.8024C18.397 39.7213 18.507 39.6757 18.6216 39.6757H22.0811C22.1958 39.6757 22.3058 39.7213 22.3869 39.8024C22.468 39.8835 22.5135 39.9935 22.5135 40.1082V42.2703C22.5135 42.385 22.468 42.495 22.3869 42.5761C22.3058 42.6572 22.1958 42.7027 22.0811 42.7027ZM19.0541 41.8379H21.6487V40.5406H19.0541V41.8379Z" fill="#F7931A"/>
<path d="M39.3785 42.7027H35.919C35.8043 42.7027 35.6943 42.6572 35.6132 42.5761C35.5321 42.495 35.4866 42.385 35.4866 42.2703V40.1082C35.4866 39.9935 35.5321 39.8835 35.6132 39.8024C35.6943 39.7213 35.8043 39.6757 35.919 39.6757H39.3785C39.4931 39.6757 39.6031 39.7213 39.6842 39.8024C39.7653 39.8835 39.8109 39.9935 39.8109 40.1082V42.2703C39.8109 42.385 39.7653 42.495 39.6842 42.5761C39.6031 42.6572 39.4931 42.7027 39.3785 42.7027ZM36.3514 41.8379H38.946V40.5406H36.3514V41.8379Z" fill="#F7931A"/>
<path d="M18.8197 24.7568H17.5587C17.3293 24.7568 17.1094 24.6656 16.9472 24.5034C16.785 24.3413 16.6938 24.1213 16.6938 23.8919V21.2973C16.6938 21.0679 16.785 20.8479 16.9472 20.6857C17.1094 20.5236 17.3293 20.4324 17.5587 20.4324H18.8201C19.0495 20.4324 19.2695 20.5236 19.4317 20.6857C19.5939 20.8479 19.685 21.0679 19.685 21.2973V23.8919C19.685 24.0055 19.6626 24.118 19.6191 24.223C19.5756 24.3279 19.5119 24.4233 19.4315 24.5036C19.3512 24.5839 19.2558 24.6476 19.1508 24.691C19.0458 24.7345 18.9333 24.7568 18.8197 24.7568ZM18.8197 21.2973H17.5587V23.8919H18.8201L18.8197 21.2973Z" fill="#F7931A"/>
<path d="M18.8197 33.4054H17.5587C17.3293 33.4054 17.1094 33.3143 16.9472 33.1521C16.785 32.9899 16.6938 32.7699 16.6938 32.5405V29.9459C16.6938 29.7166 16.785 29.4966 16.9472 29.3344C17.1094 29.1722 17.3293 29.0811 17.5587 29.0811H18.8201C19.0495 29.0811 19.2695 29.1722 19.4317 29.3344C19.5939 29.4966 19.685 29.7166 19.685 29.9459V32.5405C19.685 32.6541 19.6626 32.7666 19.6191 32.8716C19.5756 32.9766 19.5119 33.0719 19.4315 33.1522C19.3512 33.2326 19.2558 33.2962 19.1508 33.3397C19.0458 33.3831 18.9333 33.4055 18.8197 33.4054ZM18.8197 29.9459H17.5587V32.5405H18.8201L18.8197 29.9459Z" fill="#F7931A"/>
<path d="M30.609 31.6631C29.6706 31.6631 28.7534 31.3849 27.9732 30.8636C27.193 30.3423 26.585 29.6013 26.2259 28.7344C25.8668 27.8676 25.7729 26.9136 25.9559 25.9934C26.139 25.0731 26.5908 24.2277 27.2543 23.5642C27.9178 22.9007 28.7631 22.4489 29.6834 22.2658C30.6037 22.0828 31.5576 22.1767 32.4245 22.5358C33.2914 22.8949 34.0323 23.503 34.5536 24.2832C35.0749 25.0633 35.3532 25.9806 35.3532 26.9189C35.3517 28.1767 34.8514 29.3825 33.962 30.2719C33.0726 31.1613 31.8668 31.6616 30.609 31.6631ZM30.609 23.0396C29.8417 23.0396 29.0917 23.2671 28.4537 23.6933C27.8158 24.1196 27.3185 24.7255 27.0249 25.4343C26.7313 26.1432 26.6545 26.9232 26.8042 27.6757C26.9538 28.4283 27.3233 29.1195 27.8658 29.662C28.4084 30.2046 29.0996 30.574 29.8521 30.7237C30.6047 30.8734 31.3847 30.7966 32.0935 30.503C32.8024 30.2093 33.4083 29.7121 33.8345 29.0742C34.2608 28.4362 34.4883 27.6862 34.4883 26.9189C34.4872 25.8904 34.0781 24.9043 33.3508 24.1771C32.6235 23.4498 31.6375 23.0407 30.609 23.0396Z" fill="#F7931A"/>
<path d="M30.6091 29.2437C30.1494 29.2434 29.7 29.1069 29.3179 28.8513C28.9358 28.5956 28.638 28.2325 28.4622 27.8077C28.2865 27.3828 28.2406 26.9155 28.3305 26.4646C28.4203 26.0137 28.6418 25.5996 28.967 25.2746C29.2922 24.9496 29.7064 24.7283 30.1573 24.6387C30.6083 24.5491 31.0756 24.5952 31.5004 24.7712C31.9251 24.9472 32.2881 25.2452 32.5435 25.6275C32.7989 26.0098 32.9352 26.4592 32.9352 26.9189C32.9345 27.5355 32.6892 28.1266 32.253 28.5625C31.8169 28.9983 31.2257 29.2433 30.6091 29.2437ZM30.6091 25.459C30.3204 25.4593 30.0383 25.5451 29.7984 25.7057C29.5585 25.8663 29.3716 26.0943 29.2613 26.3611C29.151 26.6279 29.1222 26.9214 29.1787 27.2045C29.2352 27.4876 29.3743 27.7476 29.5786 27.9517C29.7828 28.1557 30.0429 28.2946 30.3261 28.3509C30.6092 28.4071 30.9027 28.3781 31.1694 28.2676C31.4361 28.157 31.664 27.9699 31.8244 27.7299C31.9847 27.4898 32.0703 27.2076 32.0703 26.9189C32.0698 26.5316 31.9157 26.1604 31.6417 25.8867C31.3678 25.6129 30.9964 25.4591 30.6091 25.459Z" fill="#F7931A"/>
<path d="M30.6089 25.4591C30.4943 25.4591 30.3843 25.4135 30.3032 25.3324C30.2221 25.2513 30.1765 25.1413 30.1765 25.0266V22.605C30.1765 22.4903 30.2221 22.3803 30.3032 22.2992C30.3843 22.2181 30.4943 22.1726 30.6089 22.1726C30.7236 22.1726 30.8336 22.2181 30.9147 22.2992C30.9958 22.3803 31.0414 22.4903 31.0414 22.605V25.0266C31.0414 25.1413 30.9958 25.2513 30.9147 25.3324C30.8336 25.4135 30.7236 25.4591 30.6089 25.4591Z" fill="#F7931A"/>
<path d="M30.6089 31.6631C30.4943 31.6631 30.3843 31.6176 30.3032 31.5365C30.2221 31.4554 30.1765 31.3454 30.1765 31.2307V28.8091C30.1765 28.6944 30.2221 28.5844 30.3032 28.5033C30.3843 28.4222 30.4943 28.3766 30.6089 28.3766C30.7236 28.3766 30.8336 28.4222 30.9147 28.5033C30.9958 28.5844 31.0414 28.6944 31.0414 28.8091V31.2307C31.0414 31.3454 30.9958 31.4554 30.9147 31.5365C30.8336 31.6176 30.7236 31.6631 30.6089 31.6631Z" fill="#F7931A"/>
<path d="M29.2711 26.0134C29.1564 26.0134 29.0464 25.9678 28.9653 25.8867L27.2542 24.1756C27.1754 24.094 27.1318 23.9848 27.1328 23.8714C27.1338 23.758 27.1793 23.6496 27.2595 23.5694C27.3396 23.4892 27.4481 23.4438 27.5615 23.4428C27.6749 23.4418 27.7841 23.4854 27.8657 23.5641L29.5768 25.2757C29.6373 25.3362 29.6784 25.4132 29.6951 25.4971C29.7118 25.581 29.7032 25.6679 29.6705 25.7469C29.6378 25.8259 29.5824 25.8934 29.5113 25.941C29.4402 25.9885 29.3566 26.0138 29.2711 26.0139V26.0134Z" fill="#F7931A"/>
<path d="M33.658 30.4004C33.5434 30.4004 33.4334 30.3548 33.3523 30.2737L31.6412 28.5621C31.5624 28.4806 31.5188 28.3713 31.5198 28.258C31.5208 28.1446 31.5663 28.0361 31.6464 27.9559C31.7266 27.8758 31.8351 27.8303 31.9485 27.8293C32.0618 27.8283 32.1711 27.8719 32.2526 27.9507L33.9638 29.6618C34.0242 29.7223 34.0654 29.7993 34.0821 29.8832C34.0987 29.9671 34.0902 30.054 34.0575 30.133C34.0247 30.212 33.9693 30.2795 33.8982 30.3271C33.8271 30.3746 33.7435 30.4 33.658 30.4V30.4004Z" fill="#F7931A"/>
<path d="M28.7168 27.3513H26.2952C26.1805 27.3513 26.0705 27.3057 25.9894 27.2247C25.9084 27.1436 25.8628 27.0336 25.8628 26.9189C25.8628 26.8042 25.9084 26.6942 25.9894 26.6131C26.0705 26.532 26.1805 26.4865 26.2952 26.4865H28.7168C28.8315 26.4865 28.9415 26.532 29.0226 26.6131C29.1037 26.6942 29.1493 26.8042 29.1493 26.9189C29.1493 27.0336 29.1037 27.1436 29.0226 27.2247C28.9415 27.3057 28.8315 27.3513 28.7168 27.3513Z" fill="#F7931A"/>
<path d="M34.9209 27.3513H32.5027C32.3881 27.3513 32.2781 27.3057 32.197 27.2247C32.1159 27.1436 32.0703 27.0336 32.0703 26.9189C32.0703 26.8042 32.1159 26.6942 32.197 26.6131C32.2781 26.532 32.3881 26.4865 32.5027 26.4865H34.9244C35.0391 26.4865 35.149 26.532 35.2301 26.6131C35.3112 26.6942 35.3568 26.8042 35.3568 26.9189C35.3568 27.0336 35.3112 27.1436 35.2301 27.2247C35.149 27.3057 35.0391 27.3513 34.9244 27.3513H34.9209Z" fill="#F7931A"/>
<path d="M27.56 30.4004C27.4745 30.4004 27.3909 30.375 27.3198 30.3275C27.2487 30.28 27.1933 30.2125 27.1606 30.1335C27.1279 30.0545 27.1193 29.9675 27.136 29.8837C27.1527 29.7998 27.1938 29.7227 27.2543 29.6623L28.9654 27.9511C29.0473 27.8742 29.1559 27.8322 29.2682 27.834C29.3805 27.8357 29.4877 27.8811 29.5671 27.9605C29.6466 28.0399 29.692 28.147 29.6938 28.2593C29.6957 28.3716 29.6537 28.4802 29.5769 28.5622L27.8658 30.2733C27.8256 30.3135 27.778 30.3455 27.7255 30.3673C27.6731 30.3891 27.6168 30.4004 27.56 30.4004Z" fill="#F7931A"/>
<path d="M31.9472 26.0134C31.8617 26.0134 31.7781 25.988 31.707 25.9405C31.6359 25.893 31.5805 25.8255 31.5478 25.7465C31.5151 25.6675 31.5065 25.5805 31.5232 25.4967C31.5399 25.4128 31.581 25.3357 31.6415 25.2753L33.3526 23.5641C33.4342 23.4854 33.5434 23.4418 33.6568 23.4428C33.7702 23.4438 33.8787 23.4892 33.9588 23.5694C34.039 23.6496 34.0845 23.758 34.0855 23.8714C34.0865 23.9848 34.0429 24.094 33.9641 24.1756L32.253 25.8867C32.1719 25.9678 32.0619 26.0134 31.9472 26.0134Z" fill="#F7931A"/>
</svg>
