<svg width="16" height="16" viewBox="0 0 16 16" fill="none" xmlns="http://www.w3.org/2000/svg">
<path fill-rule="evenodd" clip-rule="evenodd" d="M8.40893 10.5262C8.16819 10.7135 7.83108 10.7135 7.59034 10.5262L4.59034 8.19289C4.29971 7.96684 4.24735 7.54799 4.4734 7.25736C4.69944 6.96673 5.11829 6.91437 5.40893 7.14042L7.33342 8.63725V3.33332C7.33342 2.96532 7.63142 2.66666 8.00009 2.66666C8.36876 2.66666 8.66676 2.96532 8.66676 3.33332V8.63654L10.5903 7.14042C10.881 6.91437 11.2998 6.96673 11.5259 7.25736C11.7519 7.54799 11.6996 7.96684 11.4089 8.19289L8.40893 10.5262ZM3.33317 13.3333H12.6665C13.0332 13.3333 13.3332 13.0333 13.3332 12.6667V11.3333C13.3332 10.9667 13.0332 10.6667 12.6665 10.6667C12.2998 10.6667 11.9998 10.9667 11.9998 11.3333V12H3.99984V11.3333C3.99984 10.9667 3.69984 10.6667 3.33317 10.6667C2.96651 10.6667 2.6665 10.9667 2.6665 11.3333V12.6655V12.6667C2.6665 13.0333 2.9665 13.3333 3.33317 13.3333Z" fill="white"/>
</svg>
