<svg width="16" height="16" viewBox="0 0 16 16" fill="none" xmlns="http://www.w3.org/2000/svg">
<path fill-rule="evenodd" clip-rule="evenodd" d="M8.40905 10.5262C8.16831 10.7135 7.8312 10.7135 7.59046 10.5262L4.59046 8.1929C4.29983 7.96685 4.24747 7.548 4.47352 7.25737C4.69957 6.96674 5.11842 6.91438 5.40905 7.14043L7.33355 8.63726V3.33333C7.33355 2.96533 7.63155 2.66666 8.00021 2.66666C8.36888 2.66666 8.66688 2.96533 8.66688 3.33333V8.63655L10.5905 7.14043C10.8811 6.91438 11.2999 6.96674 11.526 7.25737C11.752 7.548 11.6997 7.96685 11.409 8.1929L8.40905 10.5262ZM3.33329 13.3333H12.6666C13.0333 13.3333 13.3333 13.0333 13.3333 12.6667V11.3333C13.3333 10.9667 13.0333 10.6667 12.6666 10.6667C12.3 10.6667 12 10.9667 12 11.3333V12H3.99996V11.3333C3.99996 10.9667 3.69996 10.6667 3.33329 10.6667C2.96663 10.6667 2.66663 10.9667 2.66663 11.3333V12.6667C2.66663 13.0333 2.96663 13.3333 3.33329 13.3333Z" fill="white"/>
</svg>
