<svg width="16" height="16" viewBox="0 0 16 16" fill="none" xmlns="http://www.w3.org/2000/svg">
<path fill-rule="evenodd" clip-rule="evenodd" d="M7.33329 10C7.33329 10.368 7.63129 10.6667 7.99996 10.6667C8.36863 10.6667 8.66663 10.368 8.66663 10V4.66667C8.66663 4.29867 8.36863 4 7.99996 4C7.63129 4 7.33329 4.29867 7.33329 4.66667V10ZM3.33329 13.3333H12.6666C13.0333 13.3333 13.3333 13.0333 13.3333 12.6667V11.3333C13.3333 10.9667 13.0333 10.6667 12.6666 10.6667C12.3 10.6667 12 10.9667 12 11.3333V12H3.99996V11.3333C3.99996 10.9667 3.69996 10.6667 3.33329 10.6667C2.96663 10.6667 2.66663 10.9667 2.66663 11.3333V12.6667C2.66663 13.0333 2.96663 13.3333 3.33329 13.3333Z" fill="white"/>
<path fill-rule="evenodd" clip-rule="evenodd" d="M7.59053 2.8071C7.83127 2.61986 8.16838 2.61986 8.40912 2.8071L11.4091 5.14044C11.6998 5.36648 11.7521 5.78533 11.5261 6.07597C11.3 6.3666 10.8812 6.41895 10.5905 6.19291L7.99983 4.17791L5.40912 6.19291C5.11849 6.41895 4.69964 6.3666 4.47359 6.07597C4.24755 5.78533 4.2999 5.36648 4.59053 5.14044L7.59053 2.8071Z" fill="white"/>
</svg>
