<svg width="16" height="16" viewBox="0 0 16 16" fill="none" xmlns="http://www.w3.org/2000/svg">
<path fill-rule="evenodd" clip-rule="evenodd" d="M7.33317 10C7.33317 10.368 7.63117 10.6667 7.99984 10.6667C8.3685 10.6667 8.6665 10.368 8.6665 10V4.66667C8.6665 4.29867 8.3685 4 7.99984 4C7.63117 4 7.33317 4.29867 7.33317 4.66667V10ZM3.33317 13.3333H12.6665C13.0332 13.3333 13.3332 13.0333 13.3332 12.6667V11.3333C13.3332 10.9667 13.0332 10.6667 12.6665 10.6667C12.2998 10.6667 11.9998 10.9667 11.9998 11.3333V12H3.99984V11.3333C3.99984 10.9667 3.69984 10.6667 3.33317 10.6667C2.96651 10.6667 2.6665 10.9667 2.6665 11.3333V12.6667C2.6665 13.0333 2.96651 13.3333 3.33317 13.3333Z" fill="#F7931A"/>
<path fill-rule="evenodd" clip-rule="evenodd" d="M7.59041 2.80709C7.83115 2.61985 8.16826 2.61985 8.409 2.80709L11.409 5.14042C11.6996 5.36647 11.752 5.78532 11.5259 6.07595C11.2999 6.36658 10.881 6.41894 10.5904 6.19289L7.99971 4.1779L5.409 6.19289C5.11837 6.41894 4.69952 6.36658 4.47347 6.07595C4.24742 5.78532 4.29978 5.36647 4.59041 5.14042L7.59041 2.80709Z" fill="#F7931A"/>
</svg>
