<svg width="24" height="24" viewBox="0 0 24 24" fill="none" xmlns="http://www.w3.org/2000/svg">
<path fill-rule="evenodd" clip-rule="evenodd" d="M15.2189 11.469C15.2885 11.3992 15.3713 11.3437 15.4624 11.3059C15.5535 11.2681 15.6512 11.2487 15.7499 11.2487C15.8485 11.2487 15.9462 11.2681 16.0373 11.3059C16.1284 11.3437 16.2112 11.3992 16.2809 11.469L20.7809 15.969C20.8507 16.0387 20.9061 16.1214 20.9439 16.2125C20.9818 16.3037 21.0012 16.4013 21.0012 16.5C21.0012 16.5986 20.9818 16.6963 20.9439 16.7874C20.9061 16.8786 20.8507 16.9613 20.7809 17.031L16.2809 21.531C16.14 21.6718 15.949 21.7509 15.7499 21.7509C15.5507 21.7509 15.3597 21.6718 15.2189 21.531C15.078 21.3902 14.9989 21.1992 14.9989 21C14.9989 20.8008 15.078 20.6098 15.2189 20.469L19.1894 16.5L15.2189 12.531C15.149 12.4613 15.0936 12.3786 15.0558 12.2874C15.018 12.1963 14.9985 12.0986 14.9985 12C14.9985 11.9013 15.018 11.8037 15.0558 11.7125C15.0936 11.6214 15.149 11.5387 15.2189 11.469Z" fill="#7E858F"/>
<path fill-rule="evenodd" clip-rule="evenodd" d="M2.99988 16.5C2.99988 16.3011 3.07889 16.1103 3.21955 15.9697C3.3602 15.829 3.55096 15.75 3.74988 15.75H19.4999C19.6988 15.75 19.8896 15.829 20.0302 15.9697C20.1709 16.1103 20.2499 16.3011 20.2499 16.5C20.2499 16.6989 20.1709 16.8897 20.0302 17.0303C19.8896 17.171 19.6988 17.25 19.4999 17.25H3.74988C3.55096 17.25 3.3602 17.171 3.21955 17.0303C3.07889 16.8897 2.99988 16.6989 2.99988 16.5ZM8.78088 2.469C8.85072 2.53867 8.90614 2.62143 8.94394 2.71255C8.98175 2.80367 9.00122 2.90135 9.00122 3C9.00122 3.09865 8.98175 3.19633 8.94394 3.28745C8.90614 3.37857 8.85072 3.46133 8.78088 3.531L4.81038 7.5L8.78088 11.469C8.85061 11.5387 8.90592 11.6215 8.94366 11.7126C8.9814 11.8037 9.00082 11.9014 9.00082 12C9.00082 12.0986 8.9814 12.1963 8.94366 12.2874C8.90592 12.3785 8.85061 12.4613 8.78088 12.531C8.71114 12.6007 8.62836 12.656 8.53725 12.6938C8.44614 12.7315 8.34849 12.7509 8.24988 12.7509C8.15126 12.7509 8.05361 12.7315 7.9625 12.6938C7.87139 12.656 7.78861 12.6007 7.71888 12.531L3.21888 8.031C3.14903 7.96133 3.09362 7.87857 3.05581 7.78745C3.018 7.69633 2.99854 7.59865 2.99854 7.5C2.99854 7.40135 3.018 7.30367 3.05581 7.21255C3.09362 7.12143 3.14903 7.03867 3.21888 6.969L7.71888 2.469C7.78854 2.39915 7.87131 2.34374 7.96242 2.30593C8.05354 2.26812 8.15122 2.24866 8.24988 2.24866C8.34853 2.24866 8.44621 2.26812 8.53733 2.30593C8.62844 2.34374 8.71121 2.39915 8.78088 2.469Z" fill="#7E858F"/>
<path fill-rule="evenodd" clip-rule="evenodd" d="M3.75 7.5C3.75 7.30109 3.82902 7.11032 3.96967 6.96967C4.11032 6.82902 4.30109 6.75 4.5 6.75H20.25C20.4489 6.75 20.6397 6.82902 20.7803 6.96967C20.921 7.11032 21 7.30109 21 7.5C21 7.69891 20.921 7.88968 20.7803 8.03033C20.6397 8.17098 20.4489 8.25 20.25 8.25H4.5C4.30109 8.25 4.11032 8.17098 3.96967 8.03033C3.82902 7.88968 3.75 7.69891 3.75 7.5Z" fill="#7E858F"/>
</svg>
