<svg width="57" height="56" viewBox="0 0 57 56" fill="none" xmlns="http://www.w3.org/2000/svg">
<rect x="0.5" width="56" height="56" rx="28" fill="#090C14"/>
<g clip-path="url(#clip0)">
<path d="M34.7134 44.0024C35.4364 44.0005 36.069 43.5162 36.2596 42.8189L37.734 37.3142L43.3178 35.8214C44.1687 35.5901 44.6724 34.7148 44.4457 33.863L41.5505 23.0725L41.7797 22.2195C41.9869 21.4338 41.572 20.6176 40.8152 20.3218L39.5116 15.4556C39.2783 14.6055 38.4052 14.101 37.5522 14.3231L28.0296 16.8775L20.0446 14.7368C19.7173 14.647 19.3698 14.6658 19.0542 14.7902L17.0594 12.7989C16.387 12.1204 15.4032 11.8534 14.4801 12.0991C13.557 12.3449 12.836 13.0656 12.59 13.9887C12.344 14.9118 12.6105 15.8959 13.2888 16.5683L16.9247 20.2042L12.5685 36.466C12.3406 37.3188 12.8448 38.1953 13.6966 38.4271L34.2983 43.947C34.4335 43.9839 34.5731 44.0026 34.7134 44.0024ZM43.414 34.1386C43.4894 34.4215 43.3227 34.7124 43.0406 34.7903L38.0533 36.1231L40.997 25.1339L43.414 34.1386ZM37.8251 15.3543C37.9625 15.3167 38.1092 15.3357 38.2324 15.407C38.3557 15.478 38.4452 15.5957 38.4814 15.7333L39.6187 19.9818L30.0893 17.4289L37.8251 15.3543ZM28.6544 28.1665L25.9626 27.2693L27.7572 25.4729L28.6544 28.1645V28.1665ZM26.4844 25.2406L21.9603 20.716C21.7521 20.5078 21.4143 20.5078 21.2061 20.7162C20.998 20.9244 20.9982 21.2622 21.2066 21.4704L25.7309 25.9938L24.9773 26.7484L17.4365 19.2077L18.1904 18.4537L19.698 19.9621C19.833 20.0968 20.0292 20.1495 20.2135 20.1C20.3975 20.0507 20.5413 19.9069 20.5906 19.7229C20.6399 19.5389 20.5874 19.3424 20.4527 19.2077L18.9448 17.6998L19.6988 16.9454L27.2383 24.4861L26.4844 25.2406ZM15.9281 17.6998L18.1904 15.4375L18.9444 16.1914L16.6826 18.4537L15.9281 17.6998ZM13.5746 14.6836C13.5746 14.0366 13.9644 13.453 14.5621 13.2055C15.1601 12.958 15.8481 13.0949 16.3055 13.5526L17.4365 14.6836L15.1742 16.9459L14.0427 15.8144C13.742 15.5151 13.5734 15.108 13.5746 14.6836ZM13.5992 36.746L17.7963 21.0758L24.5997 27.8792C24.6553 27.9336 24.7222 27.9749 24.7959 28.0002C24.8001 28.0002 24.8032 28.0061 24.8081 28.0076L28.3203 29.1806C28.4299 29.2167 28.5448 29.2345 28.6603 29.234C28.8611 29.2333 29.0576 29.1754 29.2265 29.0671L35.358 30.7136C35.4032 30.726 35.4498 30.7324 35.4966 30.7321C35.7644 30.7321 35.9904 30.5337 36.0251 30.2684C36.06 30.0031 35.8928 29.7532 35.6343 29.6841L29.7161 28.0952C29.7107 28.0046 29.6944 27.9151 29.6671 27.8284L28.4941 24.316C28.4941 24.3111 28.4882 24.308 28.486 24.3031C28.4606 24.2301 28.4194 24.1635 28.3654 24.1081L20.1247 15.8639L40.37 21.2869C40.5069 21.3235 40.6236 21.4128 40.6943 21.5356C40.7651 21.6581 40.7842 21.8038 40.7476 21.9407L35.2301 42.5399C35.1938 42.6769 35.1042 42.7938 34.9814 42.8646C34.8586 42.9353 34.7127 42.9544 34.576 42.9175L13.9766 37.3996C13.8399 37.363 13.7232 37.2737 13.6522 37.1511C13.5814 37.0284 13.5624 36.8827 13.5992 36.746Z" fill="#F7931A"/>
<path d="M37.154 24.5501C37.4215 24.5498 37.6475 24.3514 37.6824 24.0861C37.717 23.821 37.5498 23.5709 37.2916 23.5018L29.7081 21.4699C29.5222 21.4145 29.321 21.4646 29.1827 21.6005C29.0443 21.7362 28.9906 21.9366 29.0423 22.1233C29.0941 22.3103 29.2434 22.4543 29.4318 22.4994L37.0158 24.5318C37.061 24.544 37.1073 24.5501 37.154 24.5501Z" fill="#F7931A"/>
<path d="M36.3253 27.6398C36.5928 27.6395 36.8188 27.4413 36.8537 27.176C36.8886 26.9107 36.7214 26.6608 36.4629 26.5915L31.307 25.2123C31.1217 25.1595 30.9226 25.2105 30.7856 25.3462C30.6487 25.4817 30.5958 25.6806 30.6468 25.8664C30.6978 26.0521 30.8449 26.1959 31.0319 26.2422L36.1879 27.6217C36.2325 27.6337 36.2789 27.6398 36.3253 27.6398Z" fill="#F7931A"/>
<path d="M19.8732 28.77L18.327 28.3559C18.1415 28.3017 17.9411 28.352 17.8035 28.4877C17.6658 28.6231 17.6121 28.8225 17.6634 29.009C17.7146 29.1952 17.8625 29.3392 18.0502 29.3853L19.5964 29.8003C19.6418 29.8122 19.6882 29.8183 19.735 29.8183C20.0028 29.8186 20.229 29.6201 20.2639 29.3548C20.2988 29.0895 20.1317 28.8394 19.8732 28.77Z" fill="#F7931A"/>
<path d="M35.1847 33.4242C35.2608 33.1398 35.0919 32.8479 34.8078 32.7715L22.9622 29.5982C22.6874 29.5445 22.4179 29.7129 22.3452 29.9833C22.2727 30.2537 22.4218 30.5344 22.6866 30.6254L34.5316 33.7991C34.5767 33.8115 34.6231 33.8176 34.6697 33.8176C34.9106 33.8179 35.1217 33.6565 35.1847 33.4242Z" fill="#F7931A"/>
<path d="M19.0445 31.8599L17.4983 31.4455C17.2144 31.3711 16.9238 31.54 16.8478 31.8233C16.7719 32.1069 16.9396 32.3986 17.2227 32.4757L18.7689 32.8894C18.8138 32.9019 18.8602 32.9082 18.9071 32.908C19.1746 32.9082 19.4008 32.7098 19.4357 32.4445C19.4709 32.1792 19.3037 31.929 19.045 31.8599H19.0445Z" fill="#F7931A"/>
<path d="M33.9798 35.862L22.1349 32.6879C21.9489 32.6327 21.7478 32.6827 21.6094 32.8184C21.471 32.9544 21.4173 33.1545 21.4691 33.3415C21.5208 33.5282 21.6702 33.6722 21.8586 33.7176L33.7038 36.8915C33.7489 36.9039 33.7955 36.9102 33.8424 36.9102C34.1099 36.91 34.3359 36.7116 34.3708 36.4463C34.4055 36.181 34.2383 35.931 33.9798 35.862Z" fill="#F7931A"/>
</g>
<defs>
<clipPath id="clip0">
<rect width="32" height="32" fill="white" transform="translate(12.5 12)"/>
</clipPath>
</defs>
</svg>
